<?xml version="1.0" encoding="utf-8"?>
<!-- Generator: Adobe Illustrator 24.2.3, SVG Export Plug-In . SVG Version: 6.00 Build 0)  -->
<svg version="1.1" id="Layer_1" xmlns="http://www.w3.org/2000/svg" xmlns:xlink="http://www.w3.org/1999/xlink" x="0px" y="0px"
	 viewBox="0 0 373.3 639.6" style="enable-background:new 0 0 373.3 639.6;" xml:space="preserve">
<style type="text/css">
	.st0{fill:#BE2528;}
	.st1{fill:#E96626;}
	.st2{fill:#FFC942;}
	.st3{fill:#F7F4B7;}
</style>
<rect x="-7" y="-6" width="388" height="654"/>
<g>
	<path class="st0" d="M222.8,149.2c0,0-31.3,35.1-17.2,56.8c14.1,21.8,31.4,31,29.8,45.1c-1.6,14.1-12.6,36.1-12.6,36.1
		s-7.1,32.2,18.3,32c25.4-0.1,24.2-41.6,13.3-56.1c0,0,72.9,82.4,42.4,155.8S196.4,490.8,173,489.5c-23.4-1.2-101.1-25.2-103.6-97
		c0,0-4.9-17.4,19.1-49.3c0,0-11.4,74.8,22.4,49.3s3.2-51.3,3.2-51.3S97.6,325,106,293.6s24.2-33.8,24.2-33.8s-10.5,31.4,16.5,29.8
		s12.1-41.5,12.1-41.5S141.2,190.1,222.8,149.2z"/>
	<path class="st1" d="M154.5,195.2c0,0,53.1,30.1,57.2,63c4.1,32.9-17.9,33.9,7.7,57.9c0,0,24.5,8.2,14.9-24
		c0,0,23.3,10.3,23.8,43.9c0,0,0.5,14.4-4.6,21.6s-21.6,38.4-4.5,39.1s26-1.4,20.9-32.2c0,0,58.8,60.8-37.1,117
		c0,0-92.1,40.7-139.3-50.1c0,0-31.5-53.5,33.2-133.6c0,0-13.7,40.8,16.8,44.9s3.1-48,3.1-48s-8.2-16.4,21.9-44.9
		C168.6,249.7,186.8,227,154.5,195.2z"/>
	<path class="st2" d="M208.9,288c0,0-21.3,20.6-10.7,32.5c10.7,11.9,19.1,19.8,17,31.3s-14.1,28.7,0.3,36.9
		c14.4,8.1,22.3-19.8,11.9-32.9c0,0,33.8,41.8,29.5,73.8c-4.3,32-25.2,56.1-56.7,60.1s-77-12.6-83.1-41.6s10.7-45,10.7-45
		s-6.4,23.1,9.7,24.4s4.8-22.9-1.3-36.1s10.2-39.7,16-37.9c0,0-6.9,20.1,11.7,15.8c0,0,9.4,0.8,5.8-20.1
		C166.2,328.4,166.5,306.9,208.9,288z"/>
	<path class="st3" d="M218.9,464c0.2-2.4-6.2-19.2-4.6-11.4s-3.4,8.3-3.4,8.3s-10.7,1.9-5.2-6.4s3.6-13.6,3.6-13.6
		s-7.2-18.9-6.3-10.3s-4.7,7.4-7.6,4.7c-2.9-2.7-4.6-8.3-1.1-15.8S177.4,398,177.4,398s11.1,11.8,2.6,18.1
		c-8.6,6.3-5.9,14.9-5.9,14.9s7,10.6-1.3,13.3c-8.3,2.7-5.4-14.1-5.4-14.1s-13.9,12.4-13,32.1s15.6,25.5,15.6,25.5
		S215.7,501.9,218.9,464z"/>
</g>
</svg>
