<?xml version="1.0" encoding="utf-8"?>
<!-- Generator: Adobe Illustrator 24.2.3, SVG Export Plug-In . SVG Version: 6.00 Build 0)  -->
<svg version="1.1" id="Capa_1" xmlns="http://www.w3.org/2000/svg" xmlns:xlink="http://www.w3.org/1999/xlink" x="0px" y="0px"
	 viewBox="0 0 473.8 473.8" style="enable-background:new 0 0 473.8 473.8;" xml:space="preserve">
<style type="text/css">
	.st0{fill:#FBAE1D;stroke:#FBAE1D;stroke-width:3;stroke-miterlimit:11;}
</style>
<g>
	<g>
		<path class="st0" d="M396.1,281.8c-10.2-10.6-22.4-16.3-35.4-16.3c-12.9,0-25.3,5.5-35.8,16.1l-33.1,33c-2.8-1.5-5.4-2.9-8.1-4.1
			c-3.8-1.9-7.3-3.7-10.4-5.5c-31-19.7-59.2-45.4-86.3-78.6c-13.1-16.6-21.9-30.5-28.3-44.6c8.6-7.9,16.6-16,24.3-23.9
			c3-3,5.8-5.9,8.8-8.9c22-22,22-50.6,0-72.5l-28.6-28.6c-3.3-3.3-6.6-6.6-9.8-10c-6.3-6.5-12.9-13.2-19.7-19.5
			C123.6,8.3,111.5,3,98.6,3S73.6,8.3,63.1,18.4c-0.1,0.1-0.1,0.1-0.2,0.2L27.3,54.5C13.8,68,6.2,84.3,4.5,103.3
			c-2.5,30.6,6.5,59.1,13.4,77.8c17,45.8,42.4,88.3,80.2,133.7c45.8,54.8,101,98,164.1,128.6c24.1,11.5,56.3,25,92.2,27.3
			c2.2,0.1,4.5,0.2,6.6,0.2c24.2,0,44.5-8.7,60.4-26c0.1-0.2,0.3-0.3,0.4-0.5c5.4-6.6,11.7-12.5,18.4-19c4.5-4.3,9.1-8.8,13.6-13.5
			c10.4-10.8,15.8-23.4,15.8-36.2c0-13-5.5-25.5-16.1-35.9L396.1,281.8z M433.6,392.2C433.5,392.2,433.5,392.3,433.6,392.2
			c-4,4.4-8.3,8.4-12.7,12.7c-6.8,6.5-13.7,13.3-20.2,20.9c-10.6,11.4-23.1,16.7-39.4,16.7c-1.6,0-3.3,0-4.8-0.1
			c-31.1-2-60-14.1-81.8-24.5c-59.3-28.7-111.4-69.5-154.7-121.1c-35.7-43-59.6-82.9-75.4-125.7c-9.8-26.1-13.3-46.4-11.7-65.6
			c1.1-12.2,5.7-22.4,14.4-31.1l35.7-35.7c5.1-4.8,10.6-7.4,15.9-7.4c6.6,0,11.9,3.9,15.3,7.3c0.1,0.1,0.2,0.2,0.3,0.3
			c6.4,5.9,12.4,12.1,18.9,18.8c3.3,3.4,6.6,6.7,10,10.2l28.6,28.6c11.2,11.2,11.2,21.4,0,32.5c-3.1,3.1-5.9,6.1-9,9
			c-8.8,9-17.2,17.4-26.3,25.6c-0.2,0.2-0.4,0.3-0.5,0.5c-9,9-7.3,17.8-5.4,23.8c0.1,0.3,0.2,0.6,0.3,1
			c7.4,18.1,17.9,35.1,33.9,55.2l0.1,0.1c28.9,35.6,59.4,63.4,93.1,84.7c4.3,2.8,8.7,4.9,12.9,7c3.8,1.9,7.3,3.7,10.4,5.5
			c0.4,0.2,0.8,0.5,1.3,0.7c3.6,1.8,6.9,2.7,10.4,2.7c8.7,0,14.1-5.4,15.9-7.2l35.8-35.8c3.6-3.6,9.2-7.9,15.8-7.9
			c6.5,0,11.8,4,15.1,7.6c0.1,0.1,0.1,0.1,0.2,0.2l57.8,57.8C444.3,370.1,444.3,381.1,433.6,392.2z"/>
	</g>
</g>
</svg>
